<svg xmlns="http://www.w3.org/2000/svg" viewBox="0 0 200 200" width="200" height="200">
  <rect width="200" height="200" fill="#f8f9fa"/>
  <g transform="translate(100, 100)">
    <!-- Head (child size) -->
    <circle cx="0" cy="-45" r="22" fill="#fdbcb4"/>
    <!-- Hair -->
    <circle cx="0" cy="-58" r="20" fill="#654321"/>
    <!-- T-shirt with print -->
    <path d="M -28,-23 L -25,-15 L -25,15 L -18,20 L 18,20 L 25,15 L 25,-15 L 28,-23 L 20,-18 L 8,-23 L -8,-23 L -20,-18 Z" fill="#3498db"/>
    <!-- T-shirt graphic (star) -->
    <path d="M 0,-8 L 2,0 L 10,2 L 3,6 L 5,14 L 0,9 L -5,14 L -3,6 L -10,2 L -2,0 Z" fill="#f1c40f"/>
    <!-- Jeans -->
    <path d="M -18,20 L -20,48 L -10,48 L -8,20 Z" fill="#2980b9"/>
    <path d="M 8,20 L 10,48 L 20,48 L 18,20 Z" fill="#2980b9"/>
    <!-- Jean pockets -->
    <rect x="-15" y="25" width="6" height="8" rx="1" fill="#21618c"/>
    <rect x="9" y="25" width="6" height="8" rx="1" fill="#21618c"/>
  </g>
  <text x="100" y="190" text-anchor="middle" font-family="Arial" font-size="12" fill="#666">Casual T-Shirt &amp; Jeans</text>
</svg>
