<svg xmlns="http://www.w3.org/2000/svg" viewBox="0 0 200 200" width="200" height="200">
  <rect width="200" height="200" fill="#f8f9fa"/>
  <g transform="translate(100, 100)">
    <!-- Head -->
    <circle cx="0" cy="-50" r="25" fill="#fdbcb4"/>
    <!-- Hair with bow -->
    <circle cx="0" cy="-65" r="18" fill="#6d4c41"/>
    <path d="M -10,-65 L -15,-70 L -10,-75 L -5,-70 Z" fill="#ff6b9d"/>
    <path d="M 10,-65 L 15,-70 L 10,-75 L 5,-70 Z" fill="#ff6b9d"/>
    <!-- Frock/Dress -->
    <path d="M -25,-25 L -30,10 L -40,50 L -25,50 L -15,30 L 15,30 L 25,50 L 40,50 L 30,10 L 25,-25 L 15,-20 L 10,-25 L -10,-25 L -15,-20 Z" fill="#ff69b4"/>
    <!-- Dress collar -->
    <ellipse cx="0" cy="-25" rx="12" ry="5" fill="#ff1493"/>
    <!-- Polka dots -->
    <circle cx="-15" cy="5" r="3" fill="white"/>
    <circle cx="0" cy="15" r="3" fill="white"/>
    <circle cx="15" cy="5" r="3" fill="white"/>
    <circle cx="-10" cy="25" r="3" fill="white"/>
    <circle cx="10" cy="25" r="3" fill="white"/>
  </g>
  <text x="100" y="190" text-anchor="middle" font-family="Arial" font-size="12" fill="#666">Frock/Dress</text>
</svg>
