<svg xmlns="http://www.w3.org/2000/svg" viewBox="0 0 200 200" width="200" height="200">
  <rect width="200" height="200" fill="#f8f9fa"/>
  <g transform="translate(100, 100)">
    <!-- Head -->
    <circle cx="0" cy="-50" r="25" fill="#fdbcb4"/>
    <!-- T-shirt -->
    <path d="M -35,-25 L -30,-15 L -30,15 L -20,20 L 20,20 L 30,15 L 30,-15 L 35,-25 L 25,-20 L 10,-25 L -10,-25 L -25,-20 Z" fill="#e74c3c"/>
    <!-- T-shirt neck -->
    <ellipse cx="0" cy="-25" rx="10" ry="5" fill="#c0392b"/>
    <!-- Shorts -->
    <path d="M -20,20 L -22,45 L -10,45 L -8,20 Z" fill="#34495e"/>
    <path d="M 8,20 L 10,45 L 22,45 L 20,20 Z" fill="#34495e"/>
    <!-- Shorts pockets -->
    <line x1="-18" y1="25" x2="-15" y2="35" stroke="#2c3e50" stroke-width="1"/>
    <line x1="18" y1="25" x2="15" y2="35" stroke="#2c3e50" stroke-width="1"/>
  </g>
  <text x="100" y="190" text-anchor="middle" font-family="Arial" font-size="12" fill="#666">T-Shirt &amp; Shorts</text>
</svg>
